# xmcd
#
# Track frame offsets:
#	150
#	15740
#	35872
#	48877
#	72455
#	90900
#	104737
#	121417
#	132960
#	147337
#
# Disc length: 2075 seconds
#
# Revision: 0
# Processed by: cddbd v1.4PL0 Copyright (c) Steve Scherf et al.
# Submitted via: dBpowerAMP V4.0
#
DISCID=8f08190a
DTITLE=Reverend Cleophus Robinson - I shall Know him
DYEAR=1999
DGENRE=Gospel
TTITLE0=Wrapped up, tied up, tangled up
TTITLE1=Elijah rock
TTITLE2=Sweet home
TTITLE3=Because he lives
TTITLE4=I shall know him
TTITLE5=There's only one bridge
TTITLE6=Pray for me
TTITLE7=I can see so much
TTITLE8=Uncloudy day
TTITLE9=Fence around me
EXTD=
EXTT0=
EXTT1=
EXTT2=
EXTT3=
EXTT4=
EXTT5=
EXTT6=
EXTT7=
EXTT8=
EXTT9=
PLAYORDER=
